HIERARCHY
ROOT SpineBase
{
  OFFSET 0.000000 0.000000 0.000000
  CHANNELS 6 Xposition Yposition Zposition Zrotation Xrotation Yrotation
  JOINT SpineMid
  {
    OFFSET 0.000000 31.672962 0.000000
    CHANNELS 3 Zrotation Xrotation Yrotation
    JOINT SpineShoulder
    {
      OFFSET 0.500646 23.361010 -1.226309
      CHANNELS 3 Zrotation Xrotation Yrotation
      JOINT Neck
      {
        OFFSET 0.246846 7.758823 -0.909386
        CHANNELS 3 Zrotation Xrotation Yrotation
        JOINT Head
        {
          OFFSET 2.629608 14.117316 -0.985288
          CHANNELS 3 Zrotation Xrotation Yrotation
          End Site
          {
            OFFSET 0 0 0
          }
        }
      }
      JOINT ShoulderLeft
      {
        OFFSET -16.815766 -2.699937 -5.268348
        CHANNELS 3 Zrotation Xrotation Yrotation
        JOINT ElbowLeft
        {
          OFFSET -6.589825 -25.700561 -2.498283
          CHANNELS 3 Zrotation Xrotation Yrotation
          JOINT WristLeft
          {
            OFFSET -0.389286 -24.126066 -7.257818
            CHANNELS 3 Zrotation Xrotation Yrotation
            JOINT HandLeft
            {
              OFFSET 0.000559 -6.394079 0.338922
              CHANNELS 3 Zrotation Xrotation Yrotation
              JOINT HandTipLeft
              {
                OFFSET 0.016208 -6.208176 -1.795844
                CHANNELS 3 Zrotation Xrotation Yrotation
                End Site
                {
                  OFFSET 0 0 0
                }
              }
              JOINT ThumbLeft
              {
                OFFSET -2.745578 3.118882 -2.679438
                CHANNELS 3 Zrotation Xrotation Yrotation
                End Site
                {
                  OFFSET 0 0 0
                }
              }
            }
          }
        }
      }
      JOINT ShoulderRight
      {
        OFFSET 17.098769 -4.762746 3.934455
        CHANNELS 3 Zrotation Xrotation Yrotation
        JOINT ElbowRight
        {
          OFFSET 4.884776 -29.994901 1.150833
          CHANNELS 3 Zrotation Xrotation Yrotation
          JOINT WristRight
          {
            OFFSET 4.192388 -24.282111 -4.780198
            CHANNELS 3 Zrotation Xrotation Yrotation
            JOINT HandRight
            {
              OFFSET -2.484955 -3.868490 0.918305
              CHANNELS 3 Zrotation Xrotation Yrotation
              JOINT HandTipRight
              {
                OFFSET 0.043923 -3.946586 -0.940853
                CHANNELS 3 Zrotation Xrotation Yrotation
                End Site
                {
                  OFFSET 0 0 0
                }
              }
              JOINT ThumbRight
              {
                OFFSET -1.706396 1.422002 -2.701464
                CHANNELS 3 Zrotation Xrotation Yrotation
                End Site
                {
                  OFFSET 0 0 0
                }
              }
            }
          }
        }
      }
    }
  }
  JOINT HipLeft
  {
    OFFSET -6.815041 1.050651 -5.602596
    CHANNELS 3 Zrotation Xrotation Yrotation
    JOINT KneeLeft
    {
      OFFSET -3.276191 -34.358873 3.506698
      CHANNELS 3 Zrotation Xrotation Yrotation
      JOINT AnkleLeft
      {
        OFFSET -0.838262 -33.187778 6.830681
        CHANNELS 3 Zrotation Xrotation Yrotation
        JOINT FootLeft
        {
          OFFSET 2.795418 -3.412958 -11.754862
          CHANNELS 3 Zrotation Xrotation Yrotation
          End Site
          {
            OFFSET 0 0 0
          }
        }
      }
    }
  }
  JOINT HipRight
  {
    OFFSET 8.378755 -0.143875 -1.740305
    CHANNELS 3 Zrotation Xrotation Yrotation
    JOINT KneeRight
    {
      OFFSET 4.120895 -37.095529 -4.019144
      CHANNELS 3 Zrotation Xrotation Yrotation
      JOINT AnkleRight
      {
        OFFSET 3.549931 -31.743232 3.938739
        CHANNELS 3 Zrotation Xrotation Yrotation
        JOINT FootRight
        {
          OFFSET 2.572852 -3.363828 -11.785451
          CHANNELS 3 Zrotation Xrotation Yrotation
          End Site
          {
            OFFSET 0 0 0
          }
        }
      }
    }
  }
}
MOTION
Frames: 9
Frame Time: 0.033333
-81.785618 76.680402 385.402467 -0.000000 0.000000 -14.262606 0.000000 -0.000000 14.262606 -0.000000 0.000000 0.000000 -0.000000 0.000000 0.000000 0.000000 0.000000 0.000000 -0.000000 0.000000 0.000000 -0.000000 0.000000 0.000000 -0.000000 0.000000 0.000000 -0.000000 0.000000 0.000000 0.000000 0.000000 0.000000 0.000000 0.000000 0.000000 -0.000000 0.000000 0.000000 -0.000000 0.000000 0.000000 -0.000000 0.000000 0.000000 -0.000000 0.000000 0.000000 0.000000 0.000000 0.000000 0.000000 0.000000 0.000000 0.000000 -0.000000 14.262606 -0.000000 0.000000 0.000000 -0.000000 0.000000 0.000000 0.000000 0.000000 0.000000 0.000000 -0.000000 14.262606 -0.000000 0.000000 0.000000 -0.000000 0.000000 0.000000 0.000000 0.000000 0.000000
-81.772868 76.681454 385.447259 -0.025349 -0.016618 -14.265904 0.020472 0.022352 14.265896 -0.000000 0.000000 0.000000 -0.000000 0.000000 0.000000 0.000000 0.000000 0.000000 -0.000000 0.000000 0.000000 -0.000000 0.000000 0.000000 1.449835 -2.006838 0.101978 -1.635994 0.196594 0.002091 0.000000 0.000000 0.000000 0.000000 0.000000 0.000000 -0.000000 0.000000 0.000000 -0.000000 0.000000 0.000000 0.973326 1.302400 -0.621715 -2.678466 -3.039397 0.930479 0.000000 0.000000 0.000000 0.000000 0.000000 0.000000 0.020472 0.022352 14.265896 -0.000000 0.000000 0.000000 -0.000000 0.000000 0.000000 0.000000 0.000000 0.000000 0.020472 0.022352 14.265896 -0.000000 0.000000 0.000000 -0.000000 0.000000 0.000000 0.000000 0.000000 0.000000
-81.754848 76.681683 385.477354 -0.040501 -0.016182 -14.267084 0.035263 0.025664 14.267070 0.264974 1.239830 -0.011272 -0.264792 -1.239869 0.005540 0.000000 0.000000 0.000000 -0.264792 -1.239869 0.005540 0.208183 -1.119547 -0.042655 2.550815 -2.409426 0.223448 -2.745662 0.100348 -0.072464 0.000000 0.000000 0.000000 0.000000 0.000000 0.000000 -0.264792 -1.239869 0.005540 -0.692102 -0.682046 0.014403 2.442966 3.476287 -1.489633 -4.483704 -5.824368 1.804012 0.000000 0.000000 0.000000 0.000000 0.000000 0.000000 0.035263 0.025664 14.267070 -0.000000 0.000000 0.000000 -0.000000 0.000000 0.000000 0.000000 0.000000 0.000000 0.035263 0.025664 14.267070 -0.000000 0.000000 0.000000 -0.000000 0.000000 0.000000 0.000000 0.000000 0.000000
-81.731558 76.681088 385.492754 -0.045459 0.001302 -14.265963 0.044378 0.009940 14.265959 0.373122 1.745662 -0.017527 -0.372761 -1.745739 0.006164 0.000000 0.000000 0.000000 0.011212 -2.654714 0.217043 -0.029951 -0.703951 -0.275140 3.574617 -2.976977 0.340706 -3.351760 -0.285534 -0.251064 0.000000 0.000000 0.000000 0.000000 0.000000 0.000000 -0.372761 -1.745739 0.006164 -0.925627 -0.916859 0.016565 3.241029 5.437910 -2.574267 -5.486962 -8.469600 2.742378 0.000000 0.000000 0.000000 0.000000 0.000000 0.000000 0.044378 0.009940 14.265959 -0.000000 0.000000 0.000000 -0.000000 0.000000 0.000000 0.000000 0.000000 0.000000 0.044378 0.009940 14.265959 -0.000000 0.000000 0.000000 -0.000000 0.000000 0.000000 0.000000 0.000000 0.000000
-81.702998 76.679669 385.493457 -0.040227 0.035829 -14.262361 0.064940 0.858723 14.256293 0.230345 1.322878 -0.012452 -0.464352 -2.175043 0.005953 0.000000 0.000000 0.000000 0.100580 -3.326240 0.274021 -0.034764 -0.909447 -0.364211 4.436422 -3.154388 0.447237 -3.473511 -0.954105 -0.543737 0.000000 0.000000 0.000000 0.000000 0.000000 0.000000 -0.464352 -2.175043 0.005953 -1.082479 -1.079222 0.016630 3.729149 7.621757 -3.929232 -5.710529 -11.084749 3.865471 0.000000 0.000000 0.000000 0.000000 0.000000 0.000000 0.047814 -0.024815 14.262384 -0.000000 0.000000 0.000000 -0.000000 0.000000 0.000000 0.000000 0.000000 0.000000 0.047814 -0.024815 14.262384 -0.000000 0.000000 0.000000 -0.000000 0.000000 0.000000 0.000000 0.000000 0.000000
-81.669169 76.677427 385.479464 -0.024807 0.087394 -14.256098 0.073112 0.980036 14.249171 0.252436 1.508154 -0.015275 -0.539503 -2.527506 0.005275 0.000000 0.000000 0.000000 0.231985 -3.888802 0.323580 -0.035679 -1.100302 -0.451570 5.141853 -2.967858 0.536527 -3.125663 -1.897583 -0.945344 0.000000 0.000000 0.000000 0.000000 0.000000 0.000000 -0.539503 -2.527506 0.005275 -1.161676 -1.168182 0.015213 3.879857 10.107019 -5.602701 -5.124960 -13.772201 5.310555 0.000000 0.000000 0.000000 0.000000 0.000000 0.000000 0.045565 -0.078594 14.256148 -0.000000 0.000000 0.000000 -0.000000 0.000000 0.000000 0.000000 0.000000 0.000000 0.045565 -0.078594 14.256148 -0.000000 0.000000 0.000000 -0.000000 0.000000 0.000000 0.000000 0.000000 0.000000
-81.630583 76.679795 385.461678 0.003086 0.158574 -14.325483 0.062127 1.075230 14.317206 0.261210 1.618649 -0.017561 -0.590133 -2.803783 0.005592 0.000000 0.000000 0.000000 0.459307 -4.390709 0.377961 -0.031903 -1.313434 -0.557021 5.444908 -2.354354 0.599521 -0.504117 -3.925386 -1.909110 0.000000 0.000000 0.000000 0.000000 0.000000 0.000000 -0.590133 -2.803783 0.005592 -1.122927 -1.274995 -0.011614 4.678117 12.590135 -7.198595 -4.786634 -16.741508 6.577379 0.000000 0.000000 0.000000 0.000000 0.000000 0.000000 0.036246 -0.154407 14.325527 -0.000000 0.000000 0.000000 -0.000000 0.000000 0.000000 0.000000 0.000000 0.000000 0.036246 -0.154407 14.325527 -0.000000 0.000000 0.000000 -0.000000 0.000000 0.000000 0.000000 0.000000 0.000000
-81.584743 76.679325 385.417929 0.039388 0.252794 -14.324771 0.060812 1.113847 14.315862 0.237103 1.651127 -0.020357 -0.610466 -2.968262 0.007065 0.000000 0.000000 0.000000 0.723438 -4.697761 0.412206 -0.002556 -1.534877 -0.650323 5.627735 -1.506057 0.651875 1.960984 -5.791019 -2.692854 0.000000 0.000000 0.000000 0.000000 0.000000 0.000000 -0.610466 -2.968262 0.007065 -1.002047 -1.302314 -0.039125 3.433326 16.714707 -10.192128 -0.920295 -20.373762 9.907108 0.000000 0.000000 0.000000 0.000000 0.000000 0.000000 0.024382 -0.254679 14.324738 -0.000000 0.000000 0.000000 -0.000000 0.000000 0.000000 0.000000 0.000000 0.000000 0.024382 -0.254679 14.324738 -0.000000 0.000000 0.000000 -0.000000 0.000000 0.000000 0.000000 0.000000 0.000000
-81.534956 76.676974 385.353702 0.089354 0.366243 -14.233804 0.067224 1.110408 14.224997 0.215469 1.656328 -0.021260 -0.642471 -3.082546 0.005486 0.000000 0.000000 0.000000 0.947509 -4.901897 0.430746 0.037930 -1.683798 -0.729770 6.448403 0.185016 0.656639 1.577555 -6.914235 -2.801516 0.000000 0.000000 0.000000 0.000000 0.000000 0.000000 -0.642471 -3.082546 0.005486 -0.898255 -1.171549 -0.034745 1.544430 21.911800 -14.024228 3.888102 -24.457569 14.823909 0.000000 0.000000 0.000000 0.000000 0.000000 0.000000 0.003440 -0.376970 14.233530 0.180473 -0.831851 0.059380 -0.179630 0.832033 -0.056766 0.000000 0.000000 0.000000 0.003440 -0.376970 14.233530 -0.000000 0.000000 0.000000 -0.000000 0.000000 0.000000 0.000000 0.000000 0.000000
